<?xml version="1.0" encoding="iso-8859-1"?>
<!-- Generator: Adobe Illustrator 19.0.0, SVG Export Plug-In . SVG Version: 6.00 Build 0)  -->
<svg version="1.1" id="Layer_1" xmlns="http://www.w3.org/2000/svg" xmlns:xlink="http://www.w3.org/1999/xlink" x="0px" y="0px"
	 viewBox="0 0 480 480" style="enable-background:new 0 0 480 480;" xml:space="preserve">
<g id="XMLID_337_">
	<g>
		<g>
			<path d="M400.311,24.928c0.721,0.158,1.441,0.234,2.151,0.234c4.595,0,8.734-3.187,9.758-7.86
				c0.386-1.763,0.757-3.534,1.111-5.311c1.08-5.417-2.436-10.683-7.852-11.763c-5.419-1.078-10.683,2.436-11.762,7.853
				c-0.33,1.653-0.674,3.298-1.033,4.938C391.5,18.413,394.914,23.745,400.311,24.928z"/>
			<path d="M189.896,20c1.537,0,3.091,0.039,4.618,0.115c0.171,0.009,0.34,0.013,0.509,0.013c5.293,0,9.712-4.154,9.979-9.5
				c0.276-5.516-3.971-10.211-9.486-10.487c-1.86-0.094-3.75-0.141-5.62-0.141c-5.522,0-10,4.478-10,10S184.374,20,189.896,20z"/>
			<path d="M472.8,93.742C470.902,91.377,468.033,90,465,90h-79.549c6.221-11.607,11.659-23.776,16.261-36.431
				c1.887-5.19-0.791-10.927-5.981-12.815c-5.187-1.886-10.927,0.791-12.815,5.981C377.332,62.096,370.494,76.556,362.558,90
				h-64.124c-6.486-35.635-30.318-66.317-64.354-81.159c-5.06-2.206-10.955,0.107-13.164,5.17
				c-2.207,5.062,0.107,10.956,5.17,13.164C252.795,38.82,271.827,62.381,278.028,90H15c-3.033,0-5.902,1.377-7.8,3.742
				c-1.898,2.366-2.62,5.466-1.962,8.427c11.658,52.474,41.228,100.14,83.264,134.217c40.06,32.476,89.966,51.247,141.498,53.405
				V460H89.688c-5.522,0-10,4.478-10,10c0,5.522,4.478,10,10,10h300.624c5.522,0,10-4.478,10-10c0-5.522-4.478-10-10-10H250V289.791
				c51.532-2.158,101.438-20.928,141.498-53.405c42.036-34.077,71.607-81.743,83.264-134.217
				C475.42,99.208,474.698,96.108,472.8,93.742z M300.208,110h49.202c-19.165,26.256-42.891,47.632-69.615,62.95
				C292.998,154.676,300.144,132.882,300.208,110z M41.807,146.304c-5.684-11.547-10.378-23.678-13.967-36.303h252.367
				c-0.157,45.722-34.607,83.022-80.25,88.911c-3.058,0.32-10.892,0.814-11.229,0.856c-3.207,0.154-6.431,0.232-9.666,0.232
				C128.578,200,81.132,181.434,41.807,146.304z M240,270c-65.974,0-126.966-29.963-167.984-77.899
				C105.061,210.297,141.771,220,179.062,220c4.208,0,8.403-0.12,12.58-0.358c3.463-0.126,6.901-0.404,10.302-0.831
				c40.658-4.249,79.42-19.813,113.241-45.643c22.781-17.398,42.467-38.752,58.412-63.168h78.563
				C425.606,203.427,338.335,270,240,270z"/>
		</g>
	</g>
</g>
<g>
</g>
<g>
</g>
<g>
</g>
<g>
</g>
<g>
</g>
<g>
</g>
<g>
</g>
<g>
</g>
<g>
</g>
<g>
</g>
<g>
</g>
<g>
</g>
<g>
</g>
<g>
</g>
<g>
</g>
</svg>
