<?xml version="1.0" encoding="iso-8859-1"?>
<!-- Generator: Adobe Illustrator 19.0.0, SVG Export Plug-In . SVG Version: 6.00 Build 0)  -->
<svg version="1.1" id="Layer_1" xmlns="http://www.w3.org/2000/svg" xmlns:xlink="http://www.w3.org/1999/xlink" x="0px" y="0px"
	 viewBox="0 0 480 480" style="enable-background:new 0 0 480 480;" xml:space="preserve">
<g id="XMLID_1820_">
	<g>
		<path d="M414.718,106.29c-27-35.229-64.596-61.818-106.543-75.515c0.196-7.733-2.622-15.318-7.877-21.049
			C294.631,3.545,286.571,0,278.186,0h-76.371c-8.386,0-16.445,3.545-22.112,9.726c-5.255,5.731-8.073,13.315-7.877,21.049
			C129.878,44.472,92.282,71.062,65.282,106.29C35.658,144.943,20,191.18,20,240s15.658,95.057,45.282,133.71
			c27,35.229,64.596,61.818,106.543,75.515c-0.196,7.733,2.622,15.318,7.877,21.049c5.667,6.181,13.727,9.726,22.112,9.726h76.371
			c8.386,0,16.445-3.545,22.112-9.726c5.255-5.731,8.073-13.315,7.877-21.049c41.947-13.697,79.543-40.287,106.543-75.515
			C444.342,335.057,460,288.82,460,240S444.342,144.943,414.718,106.29z M166.149,151.99l5.027,50.274
			C167.252,208.94,165,216.711,165,225c0,9.473,3.16,18.52,8.867,25.831l-7.718,77.178c-0.562,5.612,1.287,11.229,5.071,15.411
			c2.506,2.769,5.722,4.756,9.246,5.782l-2.388,27.456C124.9,352.554,90,299.174,90,240c0-45.758,20.504-88.437,56.254-117.092
			c4.31-3.454,5.003-9.748,1.549-14.057c-3.455-4.31-9.749-5.002-14.057-1.548C93.234,139.774,70,188.141,70,240
			c0,69.418,42.385,131.801,106.255,157.631l-2.701,31.067C94.337,400.79,40,324.878,40,240S94.337,79.21,173.554,51.302
			l6.913,79.496c-3.524,1.026-6.74,3.014-9.246,5.782C167.437,140.762,165.588,146.379,166.149,151.99z M194.444,23.242
			c1.916-2.09,4.534-3.242,7.37-3.242h76.371c2.836,0,5.454,1.151,7.37,3.242c1.917,2.091,2.838,4.799,2.592,7.625L279.527,130
			h-79.055l-8.06-92.684c-0.009-0.122-0.019-0.242-0.032-0.364l-0.528-6.085C191.606,28.041,192.527,25.333,194.444,23.242z
			 M293.95,150l-3.493,34.924C284.316,181.777,277.362,180,270,180c-11.148,0-21.84,4.222-30,11.494
			C231.84,184.222,221.148,180,210,180c-7.362,0-14.316,1.777-20.458,4.925L186.05,150H293.95z M285.556,456.758
			c-1.916,2.09-4.534,3.242-7.37,3.242h-76.371c-2.836,0-5.454-1.151-7.37-3.242c-1.917-2.091-2.838-4.799-2.592-7.625l8.62-99.134
			h79.055l8.06,92.684c0.009,0.122,0.019,0.242,0.032,0.364l0.528,6.085C288.394,451.959,287.473,454.667,285.556,456.758z
			 M186.05,330l6.256-62.561l32.452,27.042C229.027,298.04,234.441,300,240,300s10.973-1.96,15.242-5.519l32.452-27.042L293.95,330
			H186.05z M288.915,240.202c-0.186,0.173-0.363,0.353-0.534,0.54c-0.418,0.408-0.853,0.802-1.306,1.179l-44.636,37.196
			c-1.367,1.139-3.512,1.139-4.879,0l-44.636-37.196c-0.453-0.378-0.889-0.771-1.306-1.179c-0.171-0.187-0.349-0.366-0.534-0.54
			C187.191,236.126,185,230.711,185,225c0-13.785,11.215-25,25-25c8.847,0,16.859,4.534,21.435,12.127
			c1.809,3.004,5.059,4.84,8.565,4.84s6.757-1.836,8.565-4.84C253.141,204.534,261.153,200,270,200c13.785,0,25,11.215,25,25
			C295,230.711,292.809,236.126,288.915,240.202z M306.446,428.698l-6.913-79.496c3.524-1.026,6.74-3.014,9.246-5.782
			c3.784-4.182,5.633-9.799,5.071-15.41l-7.718-77.179C311.84,243.52,315,234.473,315,225c0-8.289-2.252-16.06-6.177-22.736
			l5.027-50.273c0.562-5.612-1.287-11.229-5.071-15.411c-2.506-2.769-5.722-4.756-9.246-5.782l2.388-27.456
			C355.1,127.446,390,180.826,390,240c0,45.757-20.504,88.436-56.255,117.092c-4.309,3.454-5.002,9.748-1.548,14.057
			c3.454,4.309,9.746,5.004,14.058,1.548C386.766,340.225,410,291.858,410,240c0-69.418-42.385-131.801-106.255-157.631
			l2.701-31.067C385.663,79.21,440,155.122,440,240S385.663,400.79,306.446,428.698z"/>
	</g>
</g>
<g>
</g>
<g>
</g>
<g>
</g>
<g>
</g>
<g>
</g>
<g>
</g>
<g>
</g>
<g>
</g>
<g>
</g>
<g>
</g>
<g>
</g>
<g>
</g>
<g>
</g>
<g>
</g>
<g>
</g>
</svg>
